<svg width="800" height="600" xmlns="http://www.w3.org/2000/svg">
 <g>
  <title>Layer 1</title>
  <path stroke="#000c08" id="svg_1" d="m556.98242,417.81138c-18.40263,-26.16973 -40.91692,-47.35687 -63.50036,-62.17809c-26.35133,15.19184 -58.44582,24.44254 -93.43506,24.44254c-35.05794,0 -67.1986,-9.26873 -93.50347,-24.44254c-22.58339,14.82122 -45.12069,36.00835 -63.56848,62.17809c-42.82376,60.75862 -47.53333,123.08147 -10.5456,139.24095c16.56467,7.27933 33.93248,1.85374 51.8754,-11.75583c-3.14743,13.79924 -4.98547,28.75583 -4.98547,44.40001c0,69.50307 34.30035,125.80345 76.57181,125.80345c25.47843,0 38.09101,-20.50023 44.15582,-51.88765c6.04244,31.38742 18.65492,51.88765 44.04101,51.88765c42.34092,0 76.64159,-56.30038 76.64159,-125.80345c0,-15.6442 -1.83865,-30.60077 -5.05449,-44.40001c17.98845,13.60956 35.33342,19.03516 51.94407,11.75583c36.96497,-16.15948 32.18585,-78.48235 -10.63672,-139.24095l-0.00003,0l-0.00002,0zm-156.98065,-61.44569c71.12671,0 128.81418,-45.41274 128.81418,-101.43277s-57.68747,-101.4329 -128.81418,-101.4329c-71.1509,0 -128.88393,45.42178 -128.88393,101.4329s57.73303,101.43277 128.88393,101.43277z" opacity="NaN" fill="#183c2e"/>
  <g stroke="null" id="svg_2">
   <g stroke="null" data-name="Layer 1" id="svg_3">
    <path stroke="null" d="m246.26165,118.91888c-2.21559,9.33621 -0.14682,17.2999 -0.08008,25.24032c0.05339,5.94757 0.20688,11.90289 0.4271,17.8427c0.18018,4.94726 0.10678,9.48354 3.29669,14.12062c2.42914,3.52046 2.30902,9.60761 2.88961,14.62466c4.44452,38.72509 8.79562,77.4657 13.14672,116.2063c1.17453,10.44507 0.72073,11.17398 -7.9948,11.34458c-9.14264,0.17835 -18.29863,0.20937 -27.43459,-0.02326c-7.82129,-0.20161 -8.24172,-0.57382 -7.64111,-9.56884c1.36139,-20.33184 3.00973,-40.63266 4.65807,-60.93348c1.68171,-20.71955 3.41681,-41.43911 5.31875,-62.1354c0.40041,-4.38895 -0.46714,-9.45252 4.15089,-12.31387c2.10214,-1.30273 1.51488,-4.55179 1.52155,-7.03317c0.04004,-14.02757 -0.12012,-28.0629 0.08008,-42.08272c0.08008,-5.62964 -1.57494,-8.31264 -6.56668,-9.46803c-10.14366,-2.34956 -20.1405,-5.53659 -31.61885,-8.78565c4.21095,-4.62158 8.10825,-4.45098 11.3916,-5.35824c56.87122,-15.65598 113.80918,-31.05607 170.70042,-46.67328c6.16628,-1.69044 12.01223,-1.80676 18.29195,-0.3567c59.49389,13.76393 119.04117,27.20992 178.56843,40.77999c1.27463,0.28691 2.82287,-0.06979 4.21763,2.7838c-30.68457,13.5313 -62.06985,23.91434 -93.12145,34.85569c0.23357,5.94757 3.63704,8.35141 5.76587,11.56945c8.68884,13.15909 17.43775,26.2794 23.89098,41.1522c4.14422,9.55333 3.43016,11.09644 -5.18528,11.58496c-21.58864,1.22518 -41.55563,9.31294 -60.85528,19.74251c-15.89618,8.59179 -31.56546,17.80393 -47.06124,27.34175c-8.71554,5.36599 -15.35563,5.06357 -23.66409,-2.5977c-23.21697,-21.41744 -50.95854,-30.75365 -79.74117,-36.48409c-6.8403,-1.36476 -13.70729,-2.72177 -20.39409,-4.81544c-6.5133,-2.03939 -7.78793,-4.90849 -5.36546,-12.13552c1.84187,-5.49006 4.3511,-10.81728 7.23403,-15.67149c5.80591,-9.79371 12.07896,-19.20746 18.13846,-28.79956c1.45481,-2.29528 3.61702,-4.16407 3.83724,-8.66158c-20.2406,-5.09459 -40.37443,-10.15816 -60.80189,-15.29153l-0.00001,0.00002z" id="svg_4" fill="#183c2e"/>
   </g>
  </g>
  <g stroke="null">
   <path stroke="#E9E6DF" stroke-linecap="round" fill="none" stroke-width="10" d="m337.5,285q62.5,62 125,0"/>
  </g>
 </g>

</svg>